<svg width="72" height="31" viewBox="0 0 72 31" fill="none" xmlns="http://www.w3.org/2000/svg">
<g filter="url(#filter0_f_158_487)">
<ellipse cx="36.1744" cy="26.164" rx="31.901" ry="1.42574" fill="#42484D"/>
</g>
<ellipse cx="62.0111" cy="20.638" rx="6.23762" ry="6.9505" fill="#29303E"/>
<ellipse cx="12.1166" cy="20.638" rx="4.81188" ry="6.9505" fill="#29303E"/>
<ellipse cx="43.8353" cy="20.638" rx="4.81188" ry="6.9505" fill="#29303E"/>
<mask id="mask0_158_487" style="mask-type:alpha" maskUnits="userSpaceOnUse" x="0" y="0" width="72" height="24">
<path d="M69.6017 22.8179L66.0414 23.4113C65.0151 23.5823 63.9763 23.6683 62.9358 23.6683H13.8854L5.33091 22.599C2.44225 22.4064 0.324094 19.8028 0.723353 16.9354L1.62713 10.4446C1.81522 9.09376 2.8747 8.03052 4.22487 7.83764C5.17951 7.70126 6.07445 7.2921 6.80214 6.65933L11.3707 2.68668C12.9923 1.27658 15.0689 0.5 17.2178 0.5H39.2461C42.1234 0.5 44.9438 1.30232 47.3903 2.81683L54.4748 7.44342C55.5707 8.15914 56.7368 8.7612 57.955 9.24025L70.1765 14.0464C71.2672 14.4754 71.9844 15.5281 71.9844 16.7001V20.0052C71.9844 21.3991 70.9766 22.5887 69.6017 22.8179Z" fill="#D9D9D9"/>
</mask>
<g mask="url(#mask0_158_487)">
<path d="M69.6017 22.8179L66.0414 23.4113C65.0151 23.5823 63.9763 23.6683 62.9358 23.6683H13.8854L5.33091 22.599C2.44225 22.4064 0.324094 19.8028 0.723353 16.9354L1.62713 10.4446C1.81522 9.09376 2.8747 8.03052 4.22487 7.83764C5.17951 7.70126 6.07445 7.2921 6.80214 6.65933L11.3707 2.68668C12.9923 1.27658 15.0689 0.5 17.2178 0.5H39.2461C42.1234 0.5 44.9438 1.30232 47.3903 2.81683L54.4748 7.44342C55.5707 8.15914 56.7368 8.7612 57.955 9.24025L70.1765 14.0464C71.2672 14.4754 71.9844 15.5281 71.9844 16.7001V20.0052C71.9844 21.3991 70.9766 22.5887 69.6017 22.8179Z" fill="#E8EAEE"/>
<path d="M38.2847 8.75554L50.8309 13.6895C52.1943 14.2256 53.0908 15.5415 53.0908 17.0065V19.7465C53.0908 22.6993 50.6971 25.093 47.7443 25.093H-1.26562L1.76408 0.498975L19.6578 -0.752334C24.4905 -1.09029 29.2399 0.636405 32.7272 3.99915L36.4132 7.55347C36.9521 8.07311 37.588 8.48157 38.2847 8.75554Z" fill="#D3D4DD"/>
<ellipse cx="10.4712" cy="16.0227" rx="18.8852" ry="21.7591" fill="#0AB247"/>
<path d="M73.0579 15.1113H50.9493C49.9344 15.1113 49.2445 16.1415 49.6309 17.0799L49.7043 17.2581C49.9243 17.7924 50.4449 18.141 51.0226 18.141H55.5926C56.1535 18.141 56.6818 17.8769 57.0183 17.4282L57.4461 16.8579C57.8499 16.3193 58.4838 16.0024 59.1569 16.0024H65.0381C65.7113 16.0024 66.3451 16.3193 66.749 16.8579L66.9629 17.143C67.4341 17.7713 68.1736 18.141 68.9589 18.141H72.7015L73.0579 15.1113Z" fill="#A8ACB8"/>
<path d="M41.3445 1.81233L17.6613 2.07994C16.367 2.09456 15.1162 2.54904 14.1144 3.36869L11.6844 5.35686C10.3881 6.41745 11.1381 8.51837 12.8129 8.51837H57.5431L52.1101 4.95882C48.9135 2.8645 45.1658 1.76915 41.3445 1.81233Z" fill="#29303E"/>
<g style="mix-blend-mode:soft-light">
<path fill-rule="evenodd" clip-rule="evenodd" d="M30.6129 1.93776L17.6847 2.08384C16.3904 2.09847 15.1396 2.55295 14.1378 3.3726L11.7078 5.36077C10.4116 6.42136 11.1615 8.52228 12.8364 8.52228H37.7918C37.296 8.26788 36.8393 7.94171 36.4366 7.55347L30.6129 1.93776Z" fill="#D3D4DD"/>
</g>
</g>
<ellipse cx="41.7025" cy="20.638" rx="4.81188" ry="6.9505" fill="#29303E"/>
<ellipse cx="9.97594" cy="20.638" rx="4.81188" ry="6.9505" fill="#29303E"/>
<ellipse cx="41.6967" cy="20.639" rx="2.67327" ry="4.45545" fill="#A9ACB8"/>
<ellipse cx="9.97795" cy="20.639" rx="2.67327" ry="4.45545" fill="#A9ACB8"/>
<ellipse cx="41.6928" cy="20.6401" rx="1.24752" ry="1.9604" fill="#D5D5DE"/>
<ellipse cx="9.97409" cy="20.6401" rx="1.24752" ry="1.9604" fill="#D5D5DE"/>
<rect x="41.5234" y="25.8066" width="2.49505" height="1.78218" fill="#29303E"/>
<rect x="9.79688" y="25.8066" width="2.49505" height="1.78218" fill="#29303E"/>
<defs>
<filter id="filter0_f_158_487" x="1.77839" y="22.2432" width="68.7921" height="7.84159" filterUnits="userSpaceOnUse" color-interpolation-filters="sRGB">
<feFlood flood-opacity="0" result="BackgroundImageFix"/>
<feBlend mode="normal" in="SourceGraphic" in2="BackgroundImageFix" result="shape"/>
<feGaussianBlur stdDeviation="1.24752" result="effect1_foregroundBlur_158_487"/>
</filter>
</defs>
</svg>
