<svg width="24" height="25" viewBox="0 0 24 25" fill="none" xmlns="http://www.w3.org/2000/svg">
<path fill-rule="evenodd" clip-rule="evenodd" d="M2 7.5C2 6.94772 2.44772 6.5 3 6.5H6C6.55228 6.5 7 6.94772 7 7.5C7 8.05228 6.55228 8.5 6 8.5H3C2.44772 8.5 2 8.05228 2 7.5Z" fill="#2F2F3F"/>
<path fill-rule="evenodd" clip-rule="evenodd" d="M2 17.5C2 16.9477 2.44772 16.5 3 16.5H9C9.55228 16.5 10 16.9477 10 17.5C10 18.0523 9.55228 18.5 9 18.5H3C2.44772 18.5 2 18.0523 2 17.5Z" fill="#2F2F3F"/>
<path fill-rule="evenodd" clip-rule="evenodd" d="M17 17.5C17 16.9477 17.4477 16.5 18 16.5H21C21.5523 16.5 22 16.9477 22 17.5C22 18.0523 21.5523 18.5 21 18.5H18C17.4477 18.5 17 18.0523 17 17.5Z" fill="#2F2F3F"/>
<path fill-rule="evenodd" clip-rule="evenodd" d="M14 7.5C14 6.94772 14.4477 6.5 15 6.5H21C21.5523 6.5 22 6.94772 22 7.5C22 8.05229 21.5523 8.5 21 8.5H15C14.4477 8.5 14 8.05228 14 7.5Z" fill="#2F2F3F"/>
<path fill-rule="evenodd" clip-rule="evenodd" d="M8.97475 3.75H9.02525C9.46971 3.74999 9.84075 3.74999 10.1454 3.77077C10.4625 3.79241 10.762 3.83905 11.0524 3.95933C11.7262 4.23844 12.2616 4.77379 12.5407 5.44762C12.661 5.73801 12.7076 6.03754 12.7292 6.35464C12.75 6.65925 12.75 7.03028 12.75 7.47474V7.52526C12.75 7.96972 12.75 8.34075 12.7292 8.64537C12.7076 8.96247 12.661 9.26199 12.5407 9.55238C12.2616 10.2262 11.7262 10.7616 11.0524 11.0407C10.762 11.161 10.4625 11.2076 10.1454 11.2292C9.84075 11.25 9.46972 11.25 9.02526 11.25H8.97474C8.53028 11.25 8.15925 11.25 7.85464 11.2292C7.53754 11.2076 7.23801 11.161 6.94762 11.0407C6.27379 10.7616 5.73844 10.2262 5.45933 9.55238C5.33905 9.26199 5.29241 8.96247 5.27077 8.64537C5.24999 8.34075 5.24999 7.96971 5.25 7.52525V7.47475C5.24999 7.03029 5.24999 6.65925 5.27077 6.35464C5.29241 6.03754 5.33905 5.73801 5.45933 5.44762C5.73844 4.77379 6.27379 4.23844 6.94762 3.95933C7.23801 3.83905 7.53754 3.79241 7.85464 3.77077C8.15925 3.74999 8.53029 3.74999 8.97475 3.75Z" fill="#2F2F3F"/>
<path fill-rule="evenodd" clip-rule="evenodd" d="M14.9747 13.75H15.0253C15.4697 13.75 15.8408 13.75 16.1454 13.7708C16.4625 13.7924 16.762 13.839 17.0524 13.9593C17.7262 14.2384 18.2616 14.7738 18.5407 15.4476C18.661 15.738 18.7076 16.0375 18.7292 16.3546C18.75 16.6592 18.75 17.0303 18.75 17.4747V17.5253C18.75 17.9697 18.75 18.3408 18.7292 18.6454C18.7076 18.9625 18.661 19.262 18.5407 19.5524C18.2616 20.2262 17.7262 20.7616 17.0524 21.0407C16.762 21.161 16.4625 21.2076 16.1454 21.2292C15.8408 21.25 15.4697 21.25 15.0253 21.25H14.9747C14.5303 21.25 14.1592 21.25 13.8546 21.2292C13.5375 21.2076 13.238 21.161 12.9476 21.0407C12.2738 20.7616 11.7384 20.2262 11.4593 19.5524C11.339 19.262 11.2924 18.9625 11.2708 18.6454C11.25 18.3408 11.25 17.9697 11.25 17.5253V17.4747C11.25 17.0303 11.25 16.6592 11.2708 16.3546C11.2924 16.0375 11.339 15.738 11.4593 15.4476C11.7384 14.7738 12.2738 14.2384 12.9476 13.9593C13.238 13.839 13.5375 13.7924 13.8546 13.7708C14.1592 13.75 14.5303 13.75 14.9747 13.75Z" fill="#2F2F3F"/>
</svg>
