<svg width="62" height="42" viewBox="0 0 62 42" fill="none" xmlns="http://www.w3.org/2000/svg">
<path d="M7.80625 14.8476C10.4331 5.91854 21.213 2.31275 29.5315 2.28347C37.4072 2.25419 46.8056 4.62553 52.035 11.0223C53.2074 12.4519 54.0295 14.1304 54.3408 15.9455C54.983 19.6391 53.0663 23.4498 50.133 25.709C47.4628 27.7737 44.3665 29.214 41.0703 29.9247C39.2606 30.315 37.3829 30.5931 35.5295 30.7444C33.141 30.9347 30.6844 30.9054 28.2959 30.7297C26.2236 30.5785 24.1269 30.3053 22.0935 29.9051C18.3138 29.1537 14.2226 28.0364 11.2017 25.5723C9.81046 24.4355 8.7208 22.757 8.15164 21.0736C7.54843 19.3171 7.27602 16.653 7.80625 14.8476Z" fill="#855C52"/>
<path d="M61.9977 19.221C62.0318 17.4108 61.6864 15.5518 60.8108 13.9318C60.2027 12.7998 59.3125 11.7898 58.1401 11.1311C57.5418 10.7944 56.8851 10.5602 56.1991 10.4236C55.4305 10.2724 54.7057 10.2675 54.049 9.93569C53.4652 9.64293 53.0469 8.98422 52.6139 8.50117C52.1324 7.97421 51.6264 7.47164 51.0962 6.99835C50.0323 6.04406 48.8844 5.18832 47.6667 4.4416C44.8695 2.71433 41.7513 1.52866 38.5456 0.899234C32.6448 -0.257158 26.1409 -0.506002 20.3715 1.40668C16.9031 2.55819 13.4881 4.20252 10.7299 6.67144C10.1316 7.20399 9.58139 7.78853 9.08567 8.41823C8.65759 8.96471 8.25869 9.46239 7.66035 9.84298C7.48036 9.9552 7.32469 10.0528 7.11551 10.0918C6.17178 10.2626 5.21346 10.4285 4.32324 10.7896C1.83744 11.7898 0.470495 15.22 0.144568 17.6645C-0.103526 19.5186 -0.142442 21.5435 0.942359 23.1391C2.20229 24.9883 4.58593 24.8761 5.93828 26.5058C7.05227 27.8476 7.28091 29.8334 8.13221 31.346C9.39214 33.5856 11.1872 35.4788 13.2546 36.9865C17.3019 39.9287 22.3271 41.4657 27.2792 41.8707C30.0812 42.1 33.107 42.0268 35.8895 41.6316C41.1968 40.8753 46.3581 38.3868 50.0649 34.4785C51.3005 33.1709 52.3707 31.7022 53.2074 30.1067C53.6355 29.287 54.0004 28.4282 54.302 27.5548C54.8468 25.9593 55.8489 25.7739 57.3375 25.3933C57.9698 25.2323 58.5779 24.9981 59.1373 24.676C60.2319 24.0417 61.0394 23.0903 61.4869 21.968C61.8372 21.0946 61.9783 20.1529 61.9977 19.221ZM7.80142 14.8491C10.4283 5.92003 21.2082 2.31423 29.5266 2.28495C37.4024 2.25568 46.8008 4.62701 52.0302 11.0238C53.2026 12.4534 54.0247 14.1319 54.336 15.947C54.9781 19.6406 53.0615 23.4513 50.1281 25.7104C47.458 27.7752 44.3617 29.2155 41.0654 29.9261C39.2558 30.3165 37.3781 30.5946 35.5247 30.7459C33.1362 30.9362 30.6795 30.9069 28.291 30.7312C26.2187 30.58 24.1221 30.3067 22.0887 29.9066C18.3089 29.1552 14.2178 28.0379 11.1969 25.5738C9.80563 24.4369 8.71596 22.7585 8.1468 21.0751C7.5436 19.3186 7.27118 16.6545 7.80142 14.8491Z" fill="#B89278"/>
<mask id="mask0_158_513" style="mask-type:luminance" maskUnits="userSpaceOnUse" x="5" y="0" width="50" height="31">
<path d="M5.37187 8.11331C7.99388 -0.820679 21.3958 0.950505 29.7191 0.921229C37.5949 0.891953 47.4748 2.95589 52.7043 9.35265C53.8718 10.7823 54.0323 14.1344 54.3485 15.9494C54.9906 19.6431 53.074 23.4538 50.1406 25.7129C47.4705 27.7777 44.3742 29.218 41.0779 29.9286C39.2683 30.319 37.3906 30.5971 35.5371 30.7483C33.1486 30.9386 30.692 30.9094 28.3035 30.7337C26.2312 30.5824 24.1346 30.3092 22.1012 29.9091C18.3214 29.1577 14.2303 28.0403 11.2094 25.5763C9.8181 24.4394 8.72844 22.7609 8.15928 21.0776C7.55607 19.321 4.8465 9.91376 5.37187 8.11331Z" fill="white"/>
</mask>
<g mask="url(#mask0_158_513)">
<path d="M21.9687 9.81943C21.886 9.17536 22.4843 8.341 22.8005 7.80428C23.2189 7.10166 23.7394 6.1746 24.3232 5.59396C24.8048 5.11091 26.1231 4.7352 26.7895 4.85719C27.1884 4.9255 27.6943 5.22313 28.0543 5.38903C28.7013 5.67691 29.431 6.02822 30.039 6.37953C30.579 6.6918 31.5422 7.56031 32.2524 7.29683C32.7194 7.12118 33.2302 6.58934 33.7021 6.35025C34.4366 5.97942 35.1955 5.65251 35.9155 5.26217C36.3581 5.02308 37.01 4.48148 37.5402 4.48636C38.3088 4.49124 38.9801 5.13531 39.5444 5.57932C39.9482 5.89648 40.3763 6.11604 40.7557 6.47711C41.1254 6.8333 41.3832 7.24316 41.714 7.62863C42.0351 8.00433 42.974 8.79478 42.9886 9.3315C42.9983 9.85846 41.3978 10.5172 40.9746 10.6928C40.3082 10.9709 39.5834 11.0783 38.8974 11.3125C38.3332 11.5077 37.5451 11.5272 37.0392 11.8346C36.2414 12.3176 36.0954 13.8497 35.8425 14.6597C35.6917 15.1476 35.5701 15.4843 35.5652 16.021C35.5555 16.7139 34.9377 17.1188 34.3685 17.5092C33.6096 18.0313 32.8264 18.3728 32.0092 18.7778C31.2601 19.1486 30.8125 19.2462 29.9661 19.2462C29.1683 19.2511 29.0953 19.0803 28.8569 18.2948C28.5359 17.2408 28.3802 16.1967 27.9278 15.1818C27.6894 14.6499 27.4024 14.1669 27.1933 13.6399C27.0327 13.2398 26.9549 12.7372 26.6046 12.4445C26.162 12.059 25.5442 11.7565 25.0528 11.4101C24.6977 11.1661 24.3864 10.7855 23.9437 10.6928L21.9687 9.81943Z" fill="white"/>
<path d="M9.43376 17.0091C9.37052 16.7359 9.31701 16.448 9.21485 16.2041C8.85974 15.3599 8.95216 14.428 8.68947 13.579C8.36841 12.5202 7.87223 11.5687 7.85277 10.427C7.83331 9.20715 8.04249 8.42646 9.00081 7.63602C9.57969 7.15784 10.1002 6.69919 10.8834 6.72359C12.5957 6.77726 13.7486 8.07515 15.1496 8.86072C15.7528 9.20227 16.5166 9.06565 17.1636 9.2901C18.2192 9.65604 18.6765 10.5636 18.6035 11.6273C18.5257 12.6714 18.404 13.7888 18.4186 14.8232C18.4332 15.4575 18.7056 16.5749 18.0246 16.9847C17.6695 17.1994 17.076 17.1897 16.6674 17.1409C15.3442 16.9799 14.2983 16.0528 13.0627 15.6527C11.8515 15.2575 11.1753 16.2675 10.5721 17.1214C10.3921 17.3751 9.93481 18.1216 9.62834 17.5654C9.53591 17.3995 9.47754 17.2092 9.43376 17.0091Z" fill="#ED6C30"/>
<path d="M8.50008 20.8482C8.49035 22.5364 9.38057 23.6294 10.1054 25.059C10.9178 26.6594 11.842 27.8792 13.5398 28.6648C14.4981 29.1088 15.797 29.2161 16.8088 28.9185C18.3849 28.4452 19.2022 27.201 19.7519 25.7079C20.3307 24.1466 20.2724 22.4193 19.9173 20.8091C19.7956 20.2431 19.9902 19.6088 19.8151 19.0916C19.6011 18.4622 18.8422 18.0523 18.2584 17.8425C17.6309 17.6181 16.8282 17.7644 16.1569 17.7498C15.3251 17.7352 14.6343 16.974 14.0554 16.3885C13.6857 16.0177 13.3647 15.6176 12.8296 15.5151C11.9588 15.3492 10.7037 15.4273 10.013 16.0421C8.65088 17.257 8.50981 19.1502 8.50008 20.8482Z" fill="#ED6C30"/>
<path d="M17.7735 16.1382C17.7638 17.8264 18.654 18.9194 19.3788 20.349C20.1912 21.9494 21.1155 23.1693 22.8132 23.9548C23.7715 24.3988 25.0655 24.5111 26.0871 24.2085C27.6632 23.7353 28.4805 22.491 29.0302 20.998C29.4874 19.7586 29.502 17.9045 28.9912 16.6652C28.6459 15.8259 28.1205 14.9623 27.5416 14.2792C26.9627 13.5912 26.2476 12.991 25.5617 12.4251C25.2017 12.1323 24.9147 11.8786 24.4866 11.6785C24.0634 11.4785 23.577 11.5126 23.1489 11.3418C22.7792 11.1955 22.5213 10.8783 22.1127 10.8002C21.242 10.6344 19.9869 10.7124 19.2961 11.3272C17.9243 12.547 17.7881 14.4353 17.7735 16.1382Z" fill="#ED6C30"/>
<path d="M43.0272 7.35747C42.8181 7.16229 42.6235 6.99152 42.497 6.85002C41.2906 5.46918 40.1523 4.33718 38.5761 3.36132C37.18 2.49281 35.8325 3.35157 34.6115 4.08834C33.7845 4.58115 32.5976 5.33256 31.6587 6.20595C31.5858 6.17668 31.5128 6.1474 31.4252 6.12788C31.2112 6.07909 30.5739 5.53261 30.4328 5.4399C29.7761 4.98125 29.0854 4.58603 28.3557 4.26399C26.9984 3.6736 26.1617 3.46867 24.8337 4.22496C23.4668 5.00565 22.4549 6.37185 21.4236 7.53312C21.1318 7.86491 20.8739 8.25525 20.7475 8.68951C20.6064 9.15792 20.475 9.7776 19.867 9.58242C19.327 9.41165 19.0351 8.96763 18.6022 8.64072C17.9941 8.18695 17.172 7.88931 16.4131 7.84539C15.0316 7.76245 14.5208 6.79147 13.3679 6.31818C12.288 5.86928 11.2469 5.81561 10.0892 5.90344C8.15792 6.05469 6.32397 7.70389 6.31425 9.71416C6.30938 10.8413 6.28506 11.9879 6.76665 13.037C6.9661 13.4761 7.1315 13.5834 7.17528 14.0714C7.20933 14.4617 7.33581 14.7984 7.39905 15.1838C7.5012 15.7986 7.55958 16.5793 7.36013 17.1795C7.16555 17.765 7.10231 18.292 6.97096 18.9068C6.87854 19.3703 6.83476 19.624 6.93691 20.1168C7.0488 20.6779 7.18014 21.2244 7.33094 21.7758C7.54985 22.5565 7.8174 23.3176 8.08009 24.0837C8.30872 24.7521 8.46439 25.0986 8.91193 25.6548C9.55406 26.4453 10.3324 27.1137 10.8529 27.9871C11.315 28.7727 12.1955 29.2996 13.1198 29.3192C13.616 29.3289 14.6035 29.3436 14.73 28.6995C14.8419 28.1384 14.083 28.0408 13.7376 27.8066C12.5409 26.982 11.4999 26.3282 10.7653 25.0254C10.1183 23.8788 9.79729 22.5857 9.50541 21.3122C9.26218 20.2534 9.23299 19.1263 9.56865 18.0822C9.91404 17.0087 10.7945 16.472 11.9182 16.3988C12.6625 16.35 13.6987 17.7064 14.3992 18.0919C15.6251 18.7604 16.8315 17.7064 18.106 18.7213C19.2103 19.5996 18.9427 21.3903 19.5508 22.5467C20.2951 23.9519 22.4209 22.7077 21.6766 21.2976C21.2923 20.5755 21.3312 19.585 20.9956 18.8092C20.5869 17.8675 20.0518 17.1551 19.293 16.5988C19.2881 16.5403 19.2978 16.4866 19.2832 16.4232C18.86 14.8765 19.1811 12.227 21.1853 12.066C22.2068 11.983 22.7273 12.188 23.5349 12.8223C24.2402 13.3736 25.1353 13.5298 25.7385 14.2178C25.8309 14.3202 25.9282 14.3983 26.0304 14.4617C26.1326 14.8081 26.2834 15.1741 26.4828 15.5644C26.7941 16.1792 26.9936 16.8721 27.3536 17.4625C27.4752 17.6625 27.6649 17.8089 27.7865 18.009C27.9568 18.2968 27.9957 18.6433 28.1659 18.936C28.3167 19.1946 28.453 19.6386 28.774 19.6582C29.0318 19.6777 29.3967 19.5313 29.6351 19.424C29.9172 19.2971 30.248 19.2093 30.4961 19.0385C31.2939 18.4823 29.0562 14.9301 28.7448 14.2373C28.4238 13.52 28.6719 13.5103 29.2945 13.0711C30.1847 12.4368 31.3668 11.4414 32.5343 11.5195C33.2057 11.5683 33.7651 11.944 34.1737 12.4417C34.5483 12.8857 35.0396 14.0226 35.7498 13.4175C36.0466 13.1638 36.2898 12.8369 36.5574 12.5588C36.6644 12.4514 36.7617 12.3246 36.8249 12.188C37.3162 11.1633 35.9687 10.2802 35.2634 9.81663C34.8742 9.56291 34.558 9.23111 34.1202 9.03594C33.9207 8.94811 33.1035 8.9042 32.9965 8.77734C32.5733 8.27477 34.7429 6.9964 35.025 6.79635C35.7206 6.29866 36.9708 5.08371 37.8416 5.72778C39.5637 6.9964 40.7068 8.67975 42.244 10.1045C42.6867 10.5144 43.4213 9.98252 43.8056 9.69953C44.7834 8.97251 43.7861 8.04057 43.0272 7.35747ZM17.425 16.3158C16.5591 16.2817 15.6834 16.2573 15.2505 15.8328C14.1511 14.7594 13.3728 14.3202 11.8064 14.1543C11.0718 14.0763 10.3567 14.2373 9.69513 14.5203C9.52973 14.0177 9.29137 13.5346 9.03355 13.0272C8.56168 12.105 8.33791 11.1536 8.31845 10.124C8.26981 7.70389 10.3908 7.62583 12.035 7.99665C13.3679 8.29429 13.8738 9.90934 15.4207 10.0069C16.3499 10.0704 17.4882 10.0167 18.1255 10.8998C18.2373 11.0608 18.2957 11.2219 18.3395 11.3878C17.4006 12.7832 17.1331 14.6179 17.425 16.3158ZM27.4022 11.7C27.2806 11.8074 27.1833 11.9147 27.0763 12.0221C26.0401 11.2267 24.7559 10.612 23.7246 9.90446C23.4716 9.73368 23.0387 9.69465 22.9463 9.37749C22.8636 9.10425 23.0922 8.74806 23.2041 8.5041C23.4765 7.88443 24.1673 7.28428 24.644 6.81586C25.291 6.18643 26.0401 4.88854 27.0909 5.50821C28.1027 6.10837 29.0708 6.76219 30.0729 7.37698C30.5155 7.64534 31.2501 8.12351 31.3085 8.65536C31.3522 9.06034 31.5955 9.20184 31.1577 9.36285C29.8004 9.86054 28.4919 10.7486 27.4022 11.7Z" fill="#FCC21B"/>
<path d="M41.4352 7.32666C41.1676 7.38521 40.9098 7.43888 40.6569 7.48767C40.2239 7.5755 39.8591 7.73652 39.4456 7.8829C38.5164 8.21957 37.7868 8.55624 37.0814 9.26862C36.5657 9.79558 36.2739 10.3957 35.8701 10.991C35.6561 11.3082 35.5782 11.6692 35.4469 12.0205C35.2961 12.4109 35.0772 12.7183 34.9604 13.1281C34.7853 13.7429 34.6588 14.3333 34.6102 14.9774C34.5518 15.6849 34.8048 16.3387 34.9215 17.0365C34.975 17.3731 35.0675 17.6561 35.2085 17.9635C35.3788 18.3392 35.3788 18.7393 35.5345 19.115C35.8215 19.7933 36.3079 20.3836 36.7798 20.935C37.2662 21.5059 37.8257 21.9792 38.4046 22.4476C39.3434 23.2088 40.4525 23.443 41.6298 23.6235C42.8313 23.8138 43.9988 23.5698 45.2052 23.5405C46.1684 23.5162 47.0635 23.3503 47.9878 23.0819C48.6348 22.8965 49.3547 22.7013 49.8996 22.3061C50.566 21.823 50.8627 21.1497 51.2519 20.4422C51.6362 19.7347 51.7967 18.9247 52.0254 18.1587C52.2297 17.4414 52.3805 16.6998 52.3708 15.9484C52.3367 13.9869 52.2589 11.8595 50.8919 10.3128C49.3401 8.55624 46.5381 7.22419 44.2226 7.0095C43.3372 6.93143 42.3546 7.13149 41.4352 7.32666Z" fill="#855C52"/>
<path d="M40.5618 17.5289V17.4996C40.6007 17.002 40.5472 16.4848 40.7126 16.0066C40.8731 15.5577 41.0823 15.1234 41.1602 14.6453C41.2428 14.1622 40.878 13.6987 40.5278 13.4157C40.0559 13.0302 39.4284 12.8887 38.9711 12.4837C38.7279 12.269 38.4165 12.069 38.7181 11.7811C39.0781 11.4347 39.8321 11.5469 40.2943 11.5908C40.7126 11.6299 41.1747 11.7177 41.5785 11.825C41.812 11.8885 42.0406 12.0495 42.2936 11.986C42.6438 11.8885 42.9017 11.4688 43.1352 11.2102C43.4125 10.9028 43.7043 10.6101 44.0448 10.371C44.3562 10.1514 45.154 9.56103 45.5821 9.74645C46.2436 10.0343 45.3388 11.1566 45.2123 11.5859C45.0761 12.0446 44.5167 12.9131 44.9837 13.3132C45.2026 13.4986 45.441 13.6645 45.6988 13.7914C45.9031 13.8938 46.0831 13.9426 46.2534 14.0939C46.6523 14.4452 47.1144 14.7136 47.4744 15.1088C47.6933 15.3528 48.5446 15.9627 48.243 16.3481C47.9365 16.7385 46.8274 16.2066 46.4625 16.07C45.7329 15.8065 44.9691 15.1722 44.147 15.3674C43.7578 15.4601 43.4514 15.7431 43.2617 16.0944C43.0817 16.4408 42.96 16.6799 42.7071 16.9922C42.5222 17.2215 42.3666 17.4752 42.2206 17.729C42.0358 18.0266 41.9434 18.3682 41.778 18.6658C41.6272 18.939 41.2234 19.3587 40.8683 19.0903C40.5861 18.8756 40.5424 17.8705 40.5618 17.5289Z" fill="white"/>
<path d="M44.7271 24.6074C42.9272 24.6074 40.9425 24.1438 38.4956 23.1436C38.1648 23.007 37.8486 22.8264 37.5227 22.5873C37.1822 22.3336 36.8854 22.0604 36.5936 21.7871L36.3747 21.5871C35.4261 20.7234 34.745 19.8598 34.351 19.0206C33.9764 18.2301 33.7283 17.5177 33.6213 16.8932C33.4462 15.9027 33.6554 14.7024 33.8013 13.829C33.9861 12.7556 34.3315 11.7358 34.8229 10.7843C35.1926 10.0671 35.6109 9.31566 36.2384 8.68135C37.0654 7.84699 38.121 7.37858 39.0502 6.96384C40.1398 6.48079 41.3511 6.149 42.5527 5.98798C46.0795 5.52445 50.0101 7.5396 51.917 10.7453C52.2721 11.3357 52.6272 11.9749 52.8315 12.697C53.1769 13.9363 53.4883 15.0342 53.2548 16.4638C53.0699 17.5958 52.8315 18.4497 52.4764 19.2304L52.3791 19.4597C52.1359 19.9964 51.8392 20.6649 51.4743 21.1626C49.7668 23.4461 47.4951 24.6074 44.7271 24.6074ZM43.6229 7.90067C43.3553 7.90067 43.078 7.9153 42.8105 7.95434C41.8084 8.08608 40.7576 8.37396 39.9355 8.73502C39.0015 9.14976 38.2037 9.50107 37.6394 10.072C37.2114 10.516 36.8903 11.0917 36.5741 11.6968C36.1703 12.4628 35.8979 13.2874 35.7471 14.151C35.6206 14.8927 35.4504 15.8929 35.5623 16.5468C35.6401 16.9908 35.8298 17.5324 36.1314 18.1569C36.4136 18.7522 36.9584 19.4256 37.7027 20.1038L37.9362 20.3185C38.1843 20.5478 38.4275 20.7771 38.6951 20.9723C38.8896 21.1138 39.0696 21.2211 39.2496 21.2943C41.4192 22.1824 43.2143 22.6117 44.732 22.6117C46.8724 22.6117 48.5556 21.7481 49.8885 19.9623C50.122 19.6451 50.3701 19.0889 50.5646 18.6449L50.6717 18.4107C50.9489 17.7959 51.1435 17.0884 51.2992 16.132C51.4597 15.1415 51.2457 14.3706 50.9489 13.3069C50.7933 12.736 50.5111 12.2481 50.2193 11.7553C48.8426 9.45228 46.1914 7.90067 43.6229 7.90067Z" fill="#FCC21B"/>
<path d="M16.6172 28.3961C16.6464 26.0199 17.6777 23.0094 19.8425 21.7456C20.4165 21.409 20.9419 21.0674 21.5743 20.8527C22.5861 20.5063 23.6758 20.5112 24.707 20.2526C25.6508 20.0135 26.2053 19.5451 26.935 18.9303C27.4409 18.5058 28.0344 18.135 28.6084 17.8129C29.5522 17.2908 30.6808 17.0566 31.7558 17.0566C33.3514 17.0566 35.1027 17.4031 36.421 18.3448C37.0242 18.7742 37.5252 19.4085 37.9387 19.9989C38.3473 20.599 38.2938 21.3553 38.3425 22.0482C38.4252 23.1118 38.3279 24.1316 38.0603 25.1514C37.7782 26.2248 37.5836 27.3178 37.2625 28.3766C37.0728 29.006 36.888 29.6696 36.5328 30.2307C36.1875 30.7772 35.7107 30.6699 35.1075 30.787C34.6211 30.8797 34.1346 30.9675 33.6481 31.0407C32.7141 31.1822 31.7753 31.1285 30.8316 31.1285C29.9024 31.1334 29.0122 31.0065 28.0879 30.909C27.2464 30.8211 26.3659 30.9724 25.5146 30.9138C24.3714 30.8406 23.1115 30.7528 22.0267 30.382C21.3651 30.1624 20.7327 29.9477 20.0614 29.8014C19.5749 29.694 18.782 29.6208 18.4123 29.2646C17.8139 28.9768 17.2253 28.6547 16.6172 28.3961Z" fill="#757F3F"/>
<path d="M32.6175 35.2362C32.3354 35.2362 32.0581 35.2313 31.7808 35.2215C31.3673 35.2118 30.9733 35.1825 30.5793 35.1581C29.2026 35.0605 27.7724 35.1337 26.2157 34.9629C23.1559 34.6263 19.9599 34.1578 17.5081 32.4355C16.759 31.9134 16.0098 31.3132 15.7325 30.2642C15.572 29.6738 15.5039 29.0346 15.5282 28.3564C15.5623 27.3512 15.7861 26.2875 16.2336 25.0043C16.6909 23.6869 17.6054 21.9059 19.3518 20.8862L19.6242 20.7251C20.1204 20.4324 20.636 20.125 21.2636 19.9103C21.93 19.681 22.5819 19.5932 23.2191 19.5053C23.657 19.4419 24.0753 19.3833 24.4645 19.2858C25.1844 19.1052 25.5979 18.7588 26.279 18.1879C26.7946 17.7537 27.393 17.3536 28.1275 16.9437C29.1637 16.3679 30.4236 16.0605 31.7565 16.0605C33.8045 16.0605 35.6627 16.5826 36.9956 17.5292C37.774 18.0806 38.3723 18.8808 38.7517 19.4321C39.2479 20.1494 39.282 20.9496 39.316 21.5937C39.3209 21.7205 39.3258 21.8425 39.3355 21.9694C39.4231 23.1306 39.3258 24.2578 39.0242 25.3995C38.9025 25.824 38.8053 26.2534 38.708 26.6779C38.5572 27.3268 38.4064 28.0002 38.2069 28.6638C38.0707 29.1127 37.9977 29.5908 37.9199 30.0934C37.7983 30.8741 37.6718 31.6889 37.2972 32.5282L37.1562 32.8551C36.8643 33.5577 36.5286 34.3481 35.3709 34.8068C34.4125 35.1825 33.3958 35.2362 32.6175 35.2362ZM31.7516 18.0464C30.7641 18.0464 29.8204 18.2709 29.081 18.6807C28.4534 19.0272 27.9572 19.359 27.5632 19.6907C26.7654 20.3592 26.099 20.9203 24.9461 21.2131C24.4499 21.3351 23.9586 21.4082 23.4818 21.4717C22.9175 21.5497 22.3776 21.6229 21.8911 21.7888C21.4582 21.9352 21.0739 22.1694 20.6263 22.4378L20.3393 22.6037C19.1134 23.3209 18.4421 24.6627 18.0967 25.663C17.7173 26.7511 17.5276 27.6293 17.5033 28.4296C17.4838 28.9077 17.5324 29.3566 17.6443 29.7567C17.7465 30.1568 18.16 30.474 18.6416 30.8106C20.7139 32.2647 23.6278 32.6843 26.4298 32.9917C27.9281 33.1527 29.3485 33.0844 30.7155 33.1771C31.3501 33.2236 31.9861 33.248 32.6224 33.2503C33.2645 33.2503 34.0088 33.2161 34.646 32.9673C35.0157 32.8209 35.0839 32.6892 35.3319 32.0939C35.3757 31.9768 35.4341 31.8499 35.4876 31.7231C35.7552 31.1278 35.8525 30.4789 35.9643 29.7958C36.047 29.2444 36.1346 28.6784 36.3146 28.0929C36.4946 27.4927 36.6357 26.8828 36.7816 26.2436C36.8837 25.7947 36.9859 25.3507 37.1027 24.9018C37.3459 23.9748 37.4286 23.0672 37.3556 22.1255C37.3459 21.984 37.3362 21.8376 37.3313 21.6913C37.3118 21.2228 37.2924 20.813 37.1221 20.5641C36.8254 20.1396 36.373 19.5248 35.8525 19.1491C34.8455 18.4368 33.391 18.0464 31.7516 18.0464Z" fill="#FCC21B"/>
<path d="M23.6451 31.5036C23.5673 31.0986 23.8786 30.6643 24.0148 30.2935C24.2386 29.6836 24.4721 29.0688 24.7834 28.4979C25.3185 27.5123 25.7807 26.5657 26.5152 25.707C27.1622 24.9555 28.4757 23.2576 29.6772 23.5893C29.6918 23.8187 29.8377 24.1065 29.8329 24.3164C29.8183 24.653 29.5945 25.0141 29.4486 25.3117C29.0837 26.0875 28.5097 26.8097 28.0914 27.566C27.6195 28.4247 27.2449 29.342 26.8509 30.2349C26.5201 30.9864 26.1163 31.5572 26.1115 32.3916V32.3721" fill="#FCC21B"/>
<path d="M30.3615 31.4555C30.4394 31.275 30.5172 31.0896 30.5804 30.9091C30.9161 29.9527 31.1155 28.9769 31.5582 28.0498C32.3901 26.2835 33.7035 24.7026 35.5034 23.8877C36.1017 23.6194 36.7585 23.4096 37.386 23.2046C37.9892 23.0095 38.7675 22.8582 39.2248 22.3996C40.0421 21.575 40.6842 20.8772 41.8517 20.5747C43.3792 20.1844 45.5196 20.1795 47.0179 20.726C47.8205 21.0187 48.521 21.5262 49.1631 22.0873C49.7615 22.6143 50.2139 23.3413 50.6614 24.0146C51.2549 24.9075 51.3765 25.9907 51.3522 27.0349C51.3376 27.9961 51.5565 29.2306 50.8512 30.021C50.6177 30.2747 50.2431 30.4016 49.9561 30.6017C49.5329 30.8944 49.1631 31.2262 48.7205 31.5043C47.3097 32.3875 45.4807 32.7339 43.9094 33.2414C40.1977 34.4319 36.2282 34.4709 32.3755 34.4807C31.7042 34.4856 30.1475 34.51 29.9335 33.739C29.7048 32.89 30.0502 32.1777 30.3615 31.4555Z" fill="#757F3F"/>
<path d="M35.7422 33.7305C35.7908 32.8523 36.4232 31.9252 36.7394 31.1299C37.0605 30.3248 37.4399 29.4172 37.9118 28.6951C38.442 27.89 39.2301 27.2752 39.9549 26.6653C40.4025 26.2847 40.8841 25.7919 41.5554 25.9188C42.2607 26.0554 42.3142 26.6897 42.0516 27.285C41.8181 27.8168 41.3997 28.3731 41.0932 28.8659C40.636 29.6026 40.2906 30.3297 39.9646 31.1152C39.5998 31.9886 38.8604 32.7303 38.9577 33.7598V33.7305" fill="#FCC21B"/>
<path d="M32.1764 35.4688C31.3397 35.4688 29.3793 35.4688 28.9755 33.9953C28.669 32.8681 29.0777 31.9362 29.3987 31.1848L29.4571 31.0628C29.5252 30.9018 29.5884 30.7457 29.6468 30.5798C29.7636 30.2528 29.8609 29.9211 29.9581 29.5941C30.1479 28.9501 30.3473 28.2865 30.6586 27.6229C31.3835 26.0908 32.7456 24.0464 35.0951 22.9827C35.7227 22.6997 36.3745 22.4899 37.0021 22.285C37.1966 22.2215 37.328 22.1825 37.4642 22.1435C37.8485 22.0312 38.335 21.8897 38.5198 21.6994L38.6657 21.5482C39.4733 20.7333 40.2419 19.9624 41.5991 19.616C42.3872 19.4159 43.292 19.3086 44.2211 19.3086C45.0335 19.3086 46.2399 19.3915 47.349 19.7965C48.1565 20.0893 48.9397 20.5821 49.8056 21.3433C50.438 21.8946 50.905 22.607 51.3234 23.2315L51.4742 23.4609C52.2817 24.6661 52.3547 26.0859 52.3352 27.052C52.3352 27.2326 52.3401 27.418 52.345 27.6083C52.3741 28.5646 52.4082 29.76 51.5812 30.6822C51.3185 30.975 51.0072 31.136 50.7591 31.2677C50.6764 31.3117 50.5888 31.3556 50.5159 31.4092C50.3553 31.5215 50.1997 31.6386 50.0489 31.7557C49.7862 31.9557 49.5235 32.1558 49.2365 32.3363C48.0738 33.0633 46.7312 33.4439 45.4324 33.8147C45.0092 33.9318 44.6005 34.0489 44.2016 34.1758C40.2565 35.4444 36.0681 35.4542 32.371 35.4639H32.1764V35.4688ZM30.863 33.3463C31.004 33.4049 31.3494 33.4878 32.1813 33.4878H32.3175C35.9319 33.4781 39.9597 33.4683 43.613 32.2973C44.0314 32.1655 44.4643 32.0435 44.9021 31.9167C46.0745 31.5849 47.2761 31.2433 48.2003 30.6676C48.4338 30.5212 48.643 30.3602 48.857 30.1992C49.0322 30.0626 49.2122 29.9259 49.4019 29.7942C49.5381 29.6966 49.6889 29.6137 49.8446 29.5356C49.9418 29.4819 50.0878 29.4039 50.1267 29.3648C50.4283 29.033 50.404 28.345 50.3845 27.6863C50.3797 27.4619 50.3748 27.2423 50.3748 27.0325C50.3943 25.9103 50.2337 25.154 49.8494 24.5831L49.6938 24.344C49.3289 23.7975 48.9543 23.2315 48.5214 22.851C47.8452 22.2557 47.2615 21.88 46.6923 21.6751C45.5102 21.2457 43.4963 21.1969 42.1099 21.5531C41.278 21.7629 40.8062 22.241 40.0959 22.9632L39.9403 23.1144C39.3906 23.6658 38.6414 23.8903 38.0382 24.0659L37.7074 24.1684C37.0507 24.3831 36.4524 24.5734 35.9319 24.8124C34.1271 25.6273 33.0472 27.2618 32.4683 28.4963C32.2153 29.0233 32.0451 29.5893 31.8699 30.1845C31.7629 30.5407 31.6559 30.8969 31.5343 31.2531C31.4613 31.4629 31.3737 31.6678 31.291 31.8679L31.2375 31.9948C30.9603 32.5608 30.8046 32.956 30.863 33.3463Z" fill="#FCC21B"/>
</g>
</svg>
