<svg width="25" height="24" viewBox="0 0 25 24" fill="none" xmlns="http://www.w3.org/2000/svg">
<path fill-rule="evenodd" clip-rule="evenodd" d="M10.0238 1.99594C10.8597 1.52688 11.6339 1.25 12.5 1.25C13.3661 1.25 14.1403 1.52688 14.9762 1.99594C15.7861 2.45043 16.7141 3.12145 17.8811 3.96522L19.3902 5.05633C20.3267 5.73347 21.0747 6.2743 21.6389 6.77487C22.2215 7.29173 22.6573 7.807 22.9337 8.45513C23.2108 9.10469 23.2778 9.77045 23.2406 10.5381C23.2047 11.2789 23.0674 12.1726 22.8961 13.2871L22.5808 15.3387C22.3374 16.9225 22.1437 18.1837 21.859 19.1662C21.5646 20.1821 21.1499 20.9887 20.4086 21.6052C19.6704 22.2192 18.7911 22.4926 17.7169 22.6231C16.672 22.75 15.3539 22.75 13.6889 22.75H11.3111C9.64615 22.75 8.328 22.75 7.28306 22.6231C6.2089 22.4926 5.32957 22.2192 4.5914 21.6052C3.85016 20.9887 3.43544 20.1821 3.14105 19.1662C2.85635 18.1836 2.66256 16.9225 2.41918 15.3387L2.10393 13.2872C1.93264 12.1727 1.79528 11.2789 1.75941 10.5381C1.72225 9.77045 1.78925 9.10469 2.0663 8.45513C2.34274 7.807 2.77855 7.29173 3.36109 6.77487C3.92528 6.27429 4.6733 5.73346 5.60984 5.05632L7.11887 3.96524C8.28586 3.12145 9.2139 2.45043 10.0238 1.99594ZM10.1143 16.2109C9.67849 15.8717 9.05018 15.95 8.71094 16.3858C8.37169 16.8216 8.44998 17.4499 8.88579 17.7892C9.86407 18.5507 11.1313 19 12.5 19C13.8688 19 15.136 18.5507 16.1143 17.7892C16.5501 17.4499 16.6284 16.8216 16.2892 16.3858C15.9499 15.95 15.3216 15.8717 14.8858 16.2109C14.265 16.6942 13.4318 17 12.5 17C11.5683 17 10.7351 16.6942 10.1143 16.2109Z" fill="#0AB247"/>
</svg>
