<svg width="25" height="24" viewBox="0 0 25 24" fill="none" xmlns="http://www.w3.org/2000/svg">
<path d="M21.3071 7.14888L21.3071 7.1489C21.8587 7.63825 22.2369 8.09582 22.4738 8.65127L22.4738 8.65132C22.711 9.20724 22.7763 9.79028 22.7412 10.5139C22.7068 11.2228 22.5747 12.0872 22.4019 13.2111L22.8961 13.2871L22.4019 13.2111L22.0866 15.2627C21.8413 16.859 21.6524 18.0829 21.3788 19.027C21.0999 19.9895 20.7253 20.6915 20.0889 21.2208L20.0889 21.2208C19.4535 21.7492 18.6813 22.0023 17.6566 22.1267C16.6487 22.2492 15.3657 22.25 13.6889 22.25H11.3111C9.63437 22.25 8.35133 22.2492 7.34334 22.1267C6.31875 22.0023 5.54646 21.7492 4.91114 21.2208L4.91113 21.2208C4.27482 20.6916 3.90019 19.9895 3.6213 19.0271C3.34769 18.0827 3.15866 16.8589 2.91338 15.2628L2.59813 13.2113L2.59813 13.2112C2.42538 12.0873 2.29315 11.2228 2.25883 10.5139C2.2238 9.79029 2.2891 9.20723 2.52621 8.65129C2.76313 8.09583 3.14138 7.63824 3.69293 7.14888C4.23424 6.6686 4.95875 6.14407 5.9028 5.46151L5.9028 5.4615L7.41183 4.37042L7.41184 4.37042C8.58761 3.52028 9.48931 2.86923 10.2685 2.43198C11.062 1.98672 11.7503 1.75 12.5 1.75C13.2497 1.75 13.938 1.98672 14.7315 2.43198C15.5107 2.86923 16.4123 3.52028 17.5881 4.37041L19.0972 5.46152C20.0412 6.14408 20.7657 6.66861 21.3071 7.14888ZM10.4215 15.8164L10.4214 15.8163C9.76768 15.3075 8.82524 15.425 8.31639 16.0787C7.8075 16.7324 7.92498 17.6748 8.57863 18.1837L8.57867 18.1838C9.64635 19.0148 11.0221 19.5 12.5 19.5C13.978 19.5 15.3537 19.0148 16.4214 18.1838L16.4215 18.1837C17.0751 17.6748 17.1926 16.7324 16.6838 16.0787L16.6837 16.0786C16.1748 15.425 15.2324 15.3075 14.5787 15.8163L14.5787 15.8164C14.0472 16.2301 13.3226 16.5 12.5 16.5C11.6775 16.5 10.9529 16.2301 10.4215 15.8164Z" stroke="#CCCCCC"/>
</svg>
