<svg width="23" height="22" viewBox="0 0 23 22" fill="none" xmlns="http://www.w3.org/2000/svg">
<path d="M20.3071 6.1489L20.3071 6.14888C19.7657 5.66861 19.0412 5.14408 18.0972 4.46152L16.5881 3.37041C15.4123 2.52028 14.5107 1.86923 13.7315 1.43198C12.938 0.986716 12.2497 0.75 11.5 0.75C10.7503 0.75 10.062 0.986716 9.26849 1.43198M20.3071 6.1489L9.26849 1.43198M20.3071 6.1489C20.8587 6.63825 21.2369 7.09582 21.4738 7.65127L21.4738 7.65132M20.3071 6.1489L21.4738 7.65132M9.26849 1.43198C8.48931 1.86923 7.58761 2.52028 6.41184 3.37042L6.41183 3.37042L4.9028 4.4615L4.9028 4.46151C3.95875 5.14407 3.23424 5.6686 2.69293 6.14888L2.36109 5.77487M9.26849 1.43198L2.36109 5.77487M2.36109 5.77487L2.69293 6.14888C2.14138 6.63824 1.76313 7.09583 1.52621 7.65129C1.2891 8.20723 1.2238 8.79029 1.25883 9.51392C1.29315 10.2228 1.42538 11.0873 1.59813 12.2112L1.59813 12.2113L1.91338 14.2628C2.15866 15.8589 2.34769 17.0827 2.62129 18.027M2.36109 5.77487L2.62129 18.027M21.4738 7.65132C21.711 8.20724 21.7763 8.79028 21.7412 9.5139C21.7068 10.2228 21.5747 11.0872 21.4019 12.2111L21.8961 12.2871M21.4738 7.65132L21.8961 12.2871M21.8961 12.2871L21.4019 12.2111L21.0866 14.2627C20.8413 15.859 20.6524 17.0829 20.3788 18.027C20.0999 18.9895 19.7253 19.6915 19.0889 20.2208L19.0889 20.2208M21.8961 12.2871L19.0889 20.2208M19.0889 20.2208C18.4535 20.7492 17.6813 21.0023 16.6566 21.1267C15.6487 21.2492 14.3657 21.25 12.6889 21.25H10.3111C8.63437 21.25 7.35133 21.2492 6.34334 21.1267C5.31875 21.0023 4.54646 20.7492 3.91114 20.2208L3.91113 20.2208M19.0889 20.2208L3.91113 20.2208M2.62129 18.027C2.90019 18.9895 3.27481 19.6916 3.91113 20.2208M2.62129 18.027L3.91113 20.2208M9.42145 14.8164L9.4214 14.8163C8.76769 14.3075 7.82525 14.425 7.31639 15.0787C6.8075 15.7324 6.92498 16.6748 7.57863 17.1837L7.57867 17.1838C8.64635 18.0148 10.0221 18.5 11.5 18.5C12.978 18.5 14.3537 18.0148 15.4214 17.1838L15.4215 17.1837C16.0751 16.6748 16.1926 15.7324 15.6838 15.0787L15.6837 15.0786C15.1748 14.425 14.2324 14.3075 13.5787 14.8163L13.5787 14.8164C13.0472 15.2301 12.3226 15.5 11.5 15.5C10.6775 15.5 9.95286 15.2301 9.42145 14.8164Z" stroke="#CCCCCC"/>
</svg>
