<svg width="42" height="43" viewBox="0 0 42 43" fill="none" xmlns="http://www.w3.org/2000/svg">
<path d="M24.9062 15.5312C27.0636 15.5312 28.8125 13.7824 28.8125 11.625C28.8125 9.46764 27.0636 7.71875 24.9062 7.71875C22.7489 7.71875 21 9.46764 21 11.625C21 13.7824 22.7489 15.5312 24.9062 15.5312Z" fill="#80D25B"/>
<path fill-rule="evenodd" clip-rule="evenodd" d="M3.8125 11.625H28.0312V42.875H3.8125V11.625Z" fill="#5EA7FF"/>
<path d="M15.5312 36.625C18.1201 36.625 20.2188 34.5263 20.2188 31.9375C20.2188 29.3487 18.1201 27.25 15.5312 27.25C12.9424 27.25 10.8438 29.3487 10.8438 31.9375C10.8438 34.5263 12.9424 36.625 15.5312 36.625Z" fill="#F3B156"/>
<path d="M7.71875 15.5312C9.87611 15.5312 11.625 13.7824 11.625 11.625C11.625 9.46764 9.87611 7.71875 7.71875 7.71875C5.56139 7.71875 3.8125 9.46764 3.8125 11.625C3.8125 13.7824 5.56139 15.5312 7.71875 15.5312Z" fill="#22BA8E"/>
<path d="M34.2812 9.28125C36.4386 9.28125 38.1875 7.53236 38.1875 5.375C38.1875 3.21764 36.4386 1.46875 34.2812 1.46875C32.1239 1.46875 30.375 3.21764 30.375 5.375C30.375 7.53236 32.1239 9.28125 34.2812 9.28125Z" fill="#80D25B"/>
<path d="M12.4062 12.4062C14.9951 12.4062 17.0938 10.3076 17.0938 7.71875C17.0938 5.12992 14.9951 3.03125 12.4062 3.03125C9.81742 3.03125 7.71875 5.12992 7.71875 7.71875C7.71875 10.3076 9.81742 12.4062 12.4062 12.4062Z" fill="#80D25B"/>
<path d="M28.0312 11.625C30.6201 11.625 32.7188 9.52633 32.7188 6.9375C32.7188 4.34867 30.6201 2.25 28.0312 2.25C25.4424 2.25 23.3438 4.34867 23.3438 6.9375C23.3438 9.52633 25.4424 11.625 28.0312 11.625Z" fill="#22BA8E"/>
<path d="M19.4375 10.0625C22.0263 10.0625 24.125 7.96383 24.125 5.375C24.125 2.78617 22.0263 0.6875 19.4375 0.6875C16.8487 0.6875 14.75 2.78617 14.75 5.375C14.75 7.96383 16.8487 10.0625 19.4375 10.0625Z" fill="#80D25B"/>
<path d="M17.875 13.9688C20.0324 13.9688 21.7812 12.2199 21.7812 10.0625C21.7812 7.90514 20.0324 6.15625 17.875 6.15625C15.7176 6.15625 13.9688 7.90514 13.9688 10.0625C13.9688 12.2199 15.7176 13.9688 17.875 13.9688Z" fill="#22BA8E"/>
<path d="M23.3438 8.5C25.5011 8.5 27.25 6.75111 27.25 4.59375C27.25 2.43639 25.5011 0.6875 23.3438 0.6875C21.1864 0.6875 19.4375 2.43639 19.4375 4.59375C19.4375 6.75111 21.1864 8.5 23.3438 8.5Z" fill="#80D25B"/>
<path fill-rule="evenodd" clip-rule="evenodd" d="M28.0312 11.625L37.4062 4.59375V34.2812L28.0312 42.875V11.625Z" fill="#5B68C0"/>
<path fill-rule="evenodd" clip-rule="evenodd" d="M28.0312 11.625L37.4062 3.03125L41.3125 10.0625L32.7188 20.2188L28.0312 11.625Z" fill="#5EA7FF"/>
<path fill-rule="evenodd" clip-rule="evenodd" d="M3.8125 11.625H28.0312L24.9062 21H0.6875L3.8125 11.625Z" fill="#B4DFFB"/>
</svg>
