<svg width="20" height="20" viewBox="0 0 20 20" fill="none" xmlns="http://www.w3.org/2000/svg">
<path d="M1.66666 13.3333C1.66666 10.6818 3.53214 9.16666 5.83332 9.16666C8.13451 9.16666 9.99999 10.6818 9.99999 13.3333H1.66666Z" stroke="#1E1E1E" stroke-width="1.25" stroke-linejoin="round"/>
<path d="M4.16666 6.66666H7.49999" stroke="#1E1E1E" stroke-width="1.25" stroke-linecap="round" stroke-linejoin="round"/>
<path d="M8.33334 13.3333C8.33334 14.7141 7.21405 15.8333 5.83334 15.8333C4.45264 15.8333 3.33334 14.7141 3.33334 13.3333" stroke="#1E1E1E" stroke-width="1.25"/>
<path d="M16.6667 15.8333C17.5871 15.8333 18.3333 15.0871 18.3333 14.1667C18.3333 13.2462 17.5871 12.5 16.6667 12.5C15.7462 12.5 15 13.2462 15 14.1667C15 15.0871 15.7462 15.8333 16.6667 15.8333Z" stroke="#1E1E1E" stroke-width="1.25"/>
<path d="M13.3333 6.66666C14.4444 7.19806 16.6667 9.31157 16.6667 12.5M13.3249 4.16666H13.7805C14.6012 4.16666 15.3538 4.64938 15.7341 5.41949C15.997 5.95219 15.7341 6.66666 14.9874 6.66666H13.3249M13.3249 4.16666V6.66666M13.3249 4.16666H10.787M13.3249 6.66666C13.3249 8.26086 13.148 13.3333 10 13.3333H14.7221" stroke="#1E1E1E" stroke-width="1.25" stroke-linecap="round" stroke-linejoin="round"/>
</svg>
