<svg width="24" height="25" viewBox="0 0 24 25" fill="none" xmlns="http://www.w3.org/2000/svg">
<path fill-rule="evenodd" clip-rule="evenodd" d="M16.7929 17.2929C17.1834 16.9024 17.8166 16.9024 18.2071 17.2929L22.7071 21.7929C23.0976 22.1834 23.0976 22.8166 22.7071 23.2071C22.3166 23.5976 21.6834 23.5976 21.2929 23.2071L16.7929 18.7071C16.4024 18.3166 16.4024 17.6834 16.7929 17.2929Z" fill="#2F2F3F"/>
<path fill-rule="evenodd" clip-rule="evenodd" d="M1 11.5C1 5.97715 5.47715 1.5 11 1.5C16.5228 1.5 21 5.97715 21 11.5C21 17.0228 16.5228 21.5 11 21.5C5.47715 21.5 1 17.0228 1 11.5ZM11 3.5C6.58172 3.5 3 7.08172 3 11.5C3 15.9183 6.58172 19.5 11 19.5C15.4183 19.5 19 15.9183 19 11.5C19 7.08172 15.4183 3.5 11 3.5Z" fill="#2F2F3F"/>
</svg>
